<svg fill="#fff" width="931px" height="940px" viewBox="0 0 931 940" version="1.1" xmlns="http://www.w3.org/2000/svg" xmlns:xlink="http://www.w3.org/1999/xlink">
        <path d="M444.5,1.51 C520.61,-2.48 597.47,13.84 666.01,46.99 C768.54,96.11 851.42,184.45 894.28,289.71 C931.92,380.88 940.5,484.1 916.98,579.99 C892.64,683.65 831.65,778.33 747.01,843.01 C681.93,893.29 603.16,925.83 521.45,935.44 C422.88,948.46 320.79,926.68 234.84,877.16 C146.27,825.99 75.31,745.05 36.72,650.29 C-0.93,559.12 -9.5,455.9 14.02,360.01 C38.64,255.2 100.7,159.52 186.85,94.85 C260.58,38.45 351.8,5.67 444.5,1.51 Z M443.82,38.93 C282.72,43.73 132.55,152.3 71.71,300.7 C4.71,454.81 38.58,647.9 156.1,767.67 C202.6,818.01 263.37,858.25 328.91,878.77 C385.32,900.81 449.91,904.67 510.61,899.53 C615.01,889.12 714.51,837.49 783.74,758.75 C837.18,698.98 873.44,624.03 887,545 C913.33,398.82 859.39,240.76 746.17,143.83 C664.4,71.08 553.22,31.42 443.82,38.93 Z" id="Shape" fill="#fff" fill-rule="nonzero"></path>
        <path d="M443.82,38.93 C553.22,31.42 664.4,71.08 746.17,143.83 C859.39,240.76 913.33,398.82 887,545 C873.44,624.03 837.18,698.98 783.74,758.75 C714.51,837.49 615.01,889.12 510.61,899.53 C449.91,904.67 385.32,900.81 328.91,878.77 C329.02,841.2 329.16,803.62 328.79,766.05 C402.33,802.39 490.85,808.23 568.16,780.16 C687.35,738.82 774.48,618.53 774.04,492.08 C778.31,414.73 749.79,336.9 699.81,278.19 C650.16,219.15 577.59,179.47 500.73,171.29 C418.64,160.54 333.16,186.91 269.72,239.71 C202.45,294.49 160.46,378.63 156.04,465.16 C156.01,566 155.9,666.83 156.1,767.67 C38.58,647.9 4.71,454.81 71.71,300.7 C132.55,152.3 282.72,43.73 443.82,38.93 Z" id="Shape" fill="#FFFFFF" fill-rule="nonzero" fill-opacity="0.0"></path>
        <path d="M269.72,239.71 C333.16,186.91 418.64,160.54 500.73,171.29 C577.59,179.47 650.16,219.15 699.81,278.19 C749.79,336.9 778.31,414.73 774.04,492.08 C774.48,618.53 687.35,738.82 568.16,780.16 C490.85,808.23 402.33,802.39 328.79,766.05 C329.16,803.62 329.02,841.2 328.91,878.77 C263.37,858.25 202.6,818.01 156.1,767.67 C155.9,666.83 156.01,566 156.04,465.16 C160.46,378.63 202.45,294.49 269.72,239.71 Z" id="Shape" fill="#fff" fill-rule="nonzero"></path>
</svg>